<svg width="24" height="24" viewBox="0 0 24 24" fill="none" xmlns="http://www.w3.org/2000/svg">
<g clip-path="url(#clip0_6_2)">
<mask id="mask0_6_2" style="mask-type:luminance" maskUnits="userSpaceOnUse" x="0" y="0" width="24" height="24">
<path d="M0 9.53674e-07H24V24H0V9.53674e-07Z" fill="white"/>
</mask>
<g mask="url(#mask0_6_2)">
<path d="M22.7369 20.8421C22.7369 21.5121 22.4707 22.1547 21.9969 22.6285C21.5231 23.1022 20.8806 23.3684 20.2106 23.3684H3.7895C3.11948 23.3684 2.4769 23.1022 2.00312 22.6285C1.52935 22.1547 1.26318 21.5121 1.26318 20.8421V3.15788C1.26318 2.48786 1.52935 1.84528 2.00312 1.37151C2.4769 0.897732 3.11948 0.631567 3.7895 0.631567H20.2106C20.8806 0.631567 21.5231 0.897732 21.9969 1.37151C22.4707 1.84528 22.7369 2.48786 22.7369 3.15788V20.8421Z" fill="#CCD6DD"/>
<path d="M17.0527 17.0526H20.2106V20.2105H17.0527V17.0526ZM12.6316 17.0526H15.7895V20.2105H12.6316V17.0526ZM8.21058 17.0526H11.3685V20.2105H8.21058V17.0526ZM3.78953 17.0526H6.94742V20.2105H3.78953V17.0526ZM6.94742 6.94732H3.78953V3.78942H6.94742V6.94732ZM11.3685 6.94732H8.21058V3.78942H11.3685V6.94732ZM15.7895 6.94732H12.6316V3.78942H15.7895V6.94732ZM17.0527 3.78942H20.2106V6.94732H17.0527V3.78942ZM17.0527 8.21047H20.2106V11.3684H17.0527V8.21047ZM17.0527 12.6315H20.2106V15.7894H17.0527V12.6315ZM12.6316 12.6315H15.7895V15.7894H12.6316V12.6315ZM8.21058 12.6315H11.3685V15.7894H8.21058V12.6315ZM6.94742 15.7894H3.78953V12.6315H6.94742V15.7894ZM6.94742 11.3684H3.78953V8.21047H6.94742V11.3684ZM12.6316 8.21047H15.7895V11.3684H12.6316V8.21047ZM11.3685 11.3684H8.21058V8.21047H11.3685V11.3684ZM20.8422 2.52626H3.15795C2.99044 2.52626 2.8298 2.5928 2.71135 2.71125C2.59291 2.82969 2.52637 2.99034 2.52637 3.15784V20.8421C2.52637 21.0096 2.59291 21.1702 2.71135 21.2886C2.8298 21.4071 2.99044 21.4736 3.15795 21.4736H20.8422C21.0097 21.4736 21.1703 21.4071 21.2888 21.2886C21.4072 21.1702 21.4737 21.0096 21.4737 20.8421V3.15784C21.4737 2.99034 21.4072 2.82969 21.2888 2.71125C21.1703 2.5928 21.0097 2.52626 20.8422 2.52626Z" fill="#E1E8ED"/>
<path d="M3.78823 21.4736C3.5698 21.4734 3.35515 21.4165 3.16526 21.3086C2.97537 21.2006 2.81671 21.0453 2.70479 20.8577C2.59286 20.6701 2.5315 20.4567 2.52667 20.2384C2.52185 20.02 2.57375 19.8041 2.67728 19.6117L7.09834 11.4012C7.1917 11.2279 7.3243 11.0787 7.48554 10.9657C7.64679 10.8527 7.83223 10.779 8.02704 10.7504C8.22186 10.7218 8.42066 10.7391 8.60758 10.801C8.7945 10.8629 8.96436 10.9677 9.1036 11.1069L12.9411 14.9444L19.0914 3.20332C19.1684 3.05639 19.2735 2.92606 19.4008 2.81977C19.5282 2.71348 19.6752 2.63331 19.8335 2.58384C19.9918 2.53437 20.1584 2.51657 20.3236 2.53145C20.4888 2.54634 20.6494 2.59361 20.7963 2.67058C20.9433 2.74755 21.0736 2.8527 21.1799 2.98004C21.2862 3.10738 21.3663 3.2544 21.4158 3.41272C21.4653 3.57104 21.4831 3.73755 21.4682 3.90275C21.4533 4.06795 21.406 4.2286 21.3291 4.37553L14.3817 17.6387C14.2899 17.8142 14.158 17.9657 13.9969 18.0809C13.8357 18.1961 13.6497 18.2718 13.4539 18.3018C13.258 18.3306 13.0581 18.3135 12.87 18.2516C12.6819 18.1898 12.5107 18.085 12.3701 17.9456L8.51749 14.0936L4.9017 20.8092C4.79348 21.0103 4.63279 21.1782 4.43673 21.2952C4.24066 21.4122 4.01655 21.4739 3.78823 21.4736Z" fill="#3E721D"/>
</g>
</g>
<defs>
<clipPath id="clip0_6_2">
<rect width="24" height="24" fill="white"/>
</clipPath>
</defs>
</svg>
