<svg width="24" height="24" viewBox="0 0 24 24" fill="none" xmlns="http://www.w3.org/2000/svg">
<g clip-path="url(#clip0_6_22)">
<path fill-rule="evenodd" clip-rule="evenodd" d="M3.75 9H3C2.403 9 1.83075 9.237 1.40925 9.65925C0.987 10.0807 0.75 10.653 0.75 11.25C0.75 12.366 0.75 13.884 0.75 15C0.75 15.597 0.987 16.1693 1.40925 16.5908C1.83075 17.013 2.403 17.25 3 17.25C4.044 17.25 5.25 17.25 5.25 17.25C5.664 17.25 6 16.914 6 16.5V9.75C6 9.336 5.664 9 5.25 9C5.25 7.20975 5.961 5.493 7.227 4.227C8.493 2.961 10.2097 2.25 12 2.25C13.7903 2.25 15.507 2.961 16.773 4.227C18.039 5.493 18.75 7.20975 18.75 9C18.336 9 18 9.336 18 9.75V16.5C18 16.914 18.336 17.25 18.75 17.25V18.75C18.75 19.5788 18.0788 20.25 17.25 20.25H14.1218C13.8128 19.3763 12.9787 18.75 12 18.75C10.758 18.75 9.75 19.758 9.75 21C9.75 22.242 10.758 23.25 12 23.25C12.9787 23.25 13.8128 22.6237 14.1218 21.75H17.25C18.9068 21.75 20.25 20.4068 20.25 18.75C20.25 17.9528 20.25 17.25 20.25 17.25H21C21.597 17.25 22.1693 17.013 22.5908 16.5908C23.013 16.1693 23.25 15.597 23.25 15C23.25 13.884 23.25 12.366 23.25 11.25C23.25 10.653 23.013 10.0807 22.5908 9.65925C22.1693 9.237 21.597 9 21 9H20.25C20.25 6.81225 19.3807 4.71375 17.8335 3.1665C16.2862 1.61925 14.1878 0.75 12 0.75C9.81225 0.75 7.71375 1.61925 6.1665 3.1665C4.61925 4.71375 3.75 6.81225 3.75 9ZM12 7.5C9.10275 7.5 6.75 9.85275 6.75 12.75C6.75 15.6472 9.10275 18 12 18C14.8972 18 17.25 15.6472 17.25 12.75C17.25 9.85275 14.8972 7.5 12 7.5ZM9.91725 13.3702L11.0422 14.4952C11.3355 14.7885 11.8103 14.7885 12.1035 14.4952L14.3535 12.2452C14.646 11.9527 14.646 11.4773 14.3535 11.1848C14.0603 10.8923 13.5855 10.8923 13.2922 11.1848L11.5725 12.9045L10.9785 12.3098C10.6852 12.0173 10.2105 12.0173 9.91725 12.3098C9.62475 12.6023 9.62475 13.0777 9.91725 13.3702ZM10.0852 6.6705C10.0852 6.6705 12 5.7135 13.9147 6.6705C14.2845 6.85575 14.736 6.70575 14.9205 6.33525C15.1057 5.9655 14.9558 5.514 14.5853 5.3295C12 4.0365 9.41475 5.3295 9.41475 5.3295C9.04425 5.514 8.89425 5.9655 9.0795 6.33525C9.264 6.70575 9.7155 6.85575 10.0852 6.6705Z" fill="url(#paint0_linear_6_22)"/>
</g>
<defs>
<linearGradient id="paint0_linear_6_22" x1="14.4608" y1="0.75" x2="14.4608" y2="23.1247" gradientUnits="userSpaceOnUse">
<stop stop-color="#04BEFF"/>
<stop offset="1" stop-color="#555CFF"/>
</linearGradient>
<clipPath id="clip0_6_22">
<rect width="24" height="24" fill="white"/>
</clipPath>
</defs>
</svg>
