<svg width="24" height="24" viewBox="0 0 24 24" fill="none" xmlns="http://www.w3.org/2000/svg">
<path d="M19.8247 3.55525C15.9997 -0.793955 10.4975 2.14047 10.8905 5.62469C11.2839 9.10928 10.454 9.8253 10.1396 10.1397C9.82517 10.4541 9.10916 11.2841 5.62456 10.8907C2.14034 10.4977 -0.794076 15.9999 3.55513 19.8249C7.90424 23.6498 14.3229 23.6761 19.1566 19.1567C23.6759 14.3231 23.6495 7.90441 19.8247 3.55525Z" fill="#FAA54F"/>
<path d="M16.6104 7.23516C17.4621 7.23516 18.1525 6.54472 18.1525 5.69302C18.1525 4.84132 17.4621 4.15088 16.6104 4.15088C15.7587 4.15088 15.0682 4.84132 15.0682 5.69302C15.0682 6.54472 15.7587 7.23516 16.6104 7.23516Z" fill="#CB2027"/>
<path d="M18.3148 12.5477C19.1665 12.5477 19.857 11.8572 19.857 11.0055C19.857 10.1538 19.1665 9.46338 18.3148 9.46338C17.4631 9.46338 16.7727 10.1538 16.7727 11.0055C16.7727 11.8572 17.4631 12.5477 18.3148 12.5477Z" fill="#3953A4"/>
<path d="M5.69302 18.1526C6.54472 18.1526 7.23516 17.4622 7.23516 16.6105C7.23516 15.7588 6.54472 15.0684 5.69302 15.0684C4.84132 15.0684 4.15088 15.7588 4.15088 16.6105C4.15088 17.4622 4.84132 18.1526 5.69302 18.1526Z" fill="#0D8140"/>
<path d="M11.0054 19.857C11.8571 19.857 12.5475 19.1665 12.5475 18.3148C12.5475 17.4631 11.8571 16.7727 11.0054 16.7727C10.1537 16.7727 9.46326 17.4631 9.46326 18.3148C9.46326 19.1665 10.1537 19.857 11.0054 19.857Z" fill="#E45E25"/>
<path d="M17.7054 15.5245C17.1033 14.9224 16.1267 14.922 15.5244 15.5245C14.9219 16.1269 14.9222 17.1035 15.5244 17.7055C16.1264 18.3075 17.1029 18.3079 17.7054 17.7055C18.3078 17.103 18.3074 16.1264 17.7054 15.5245Z" fill="#F6EC13"/>
</svg>
