<svg width="24" height="24" viewBox="0 0 24 24" fill="none" xmlns="http://www.w3.org/2000/svg">
<g clip-path="url(#clip0_6_24)">
<path d="M5.25 19.125V21.375C5.25 21.7728 5.40804 22.1544 5.68934 22.4357C5.97064 22.717 6.35218 22.875 6.75 22.875H17.25C17.6478 22.875 18.0294 22.717 18.3107 22.4357C18.592 22.1544 18.75 21.7728 18.75 21.375V19.125H5.25ZM12 21.75C11.8517 21.75 11.7067 21.706 11.5833 21.6236C11.46 21.5412 11.3639 21.4241 11.3071 21.287C11.2503 21.15 11.2355 20.9992 11.2644 20.8537C11.2933 20.7082 11.3648 20.5746 11.4697 20.4697C11.5746 20.3648 11.7082 20.2933 11.8537 20.2644C11.9992 20.2355 12.15 20.2503 12.287 20.3071C12.4241 20.3639 12.5412 20.46 12.6236 20.5833C12.706 20.7067 12.75 20.8517 12.75 21C12.7494 21.1987 12.6702 21.3892 12.5297 21.5297C12.3892 21.6702 12.1987 21.7494 12 21.75ZM18.75 2.625V3.375H5.25V2.625C5.25 2.22718 5.40804 1.84564 5.68934 1.56434C5.97064 1.28304 6.35218 1.125 6.75 1.125H17.25C17.6478 1.125 18.0294 1.28304 18.3107 1.56434C18.592 1.84564 18.75 2.22718 18.75 2.625Z" fill="#78B9EB"/>
<path d="M10.125 7.5H1.125V9.75H10.125V7.5Z" fill="#78B9EB"/>
<path d="M10.125 9.75H1.125V15.75H10.125V9.75Z" fill="#78B9EB"/>
<path d="M16.6988 13.635C17.0063 15.1125 17.64 16.125 18.375 16.125C17.665 16.1254 16.9649 15.9577 16.332 15.6358C15.6992 15.3138 15.1515 14.8467 14.7338 14.2725C15.3476 13.9494 16.0122 13.7338 16.6988 13.635ZM20.25 11.625H22.875C22.8767 12.5762 22.576 13.5034 22.0163 14.2725C21.4025 13.9494 20.7379 13.7338 20.0513 13.635C20.1865 12.9736 20.2531 12.3001 20.25 11.625Z" fill="#78B9EB"/>
<path d="M22.0162 14.2725C21.6355 14.7952 21.1468 15.2298 20.5832 15.5469C20.0196 15.864 19.3944 16.056 18.75 16.11C18.6262 16.1213 18.5025 16.125 18.375 16.125C19.11 16.125 19.7438 15.1125 20.0513 13.635C20.7378 13.7338 21.4024 13.9494 22.0162 14.2725Z" fill="#78B9EB"/>
<path d="M20.0513 13.635C19.7438 15.1125 19.11 16.125 18.375 16.125C17.64 16.125 17.0063 15.1125 16.6988 13.635C17.809 13.455 18.941 13.455 20.0513 13.635ZM16.5 11.625C16.497 12.3001 16.5636 12.9736 16.6988 13.635C16.0122 13.7338 15.3476 13.9494 14.7338 14.2725C14.174 13.5034 13.8733 12.5762 13.875 11.625H16.5ZM18.3038 7.12875C17.5988 7.1925 16.995 8.18625 16.6988 9.615C16.0122 9.51624 15.3476 9.30063 14.7338 8.9775C15.1444 8.41325 15.6807 7.9524 16.3004 7.6315C16.9201 7.3106 17.606 7.13847 18.3038 7.12875ZM18.375 7.125C18.5025 7.125 18.6263 7.12875 18.75 7.14C19.3944 7.194 20.0196 7.38605 20.5832 7.70311C21.1468 8.02017 21.6355 8.4548 22.0163 8.9775C21.4025 9.30063 20.7378 9.51624 20.0513 9.615C19.7438 8.1375 19.11 7.125 18.375 7.125Z" fill="#78B9EB"/>
<path d="M22.875 11.625H20.25C20.2531 10.95 20.1865 10.2764 20.0513 9.61504C20.7379 9.51628 21.4025 9.30066 22.0163 8.97754C22.576 9.74667 22.8767 10.6738 22.875 11.625Z" fill="#78B9EB"/>
<path d="M20.25 11.625H16.5C16.4969 10.9499 16.5635 10.2764 16.6987 9.61499C17.2528 9.7058 17.8135 9.75096 18.375 9.74999C18.9365 9.75096 19.4971 9.7058 20.0512 9.61499C20.1864 10.2764 20.253 10.9499 20.25 11.625ZM16.5 11.625H20.25C20.253 12.3 20.1864 12.9736 20.0512 13.635C18.941 13.455 17.809 13.455 16.6987 13.635C16.5635 12.9736 16.4969 12.3 16.5 11.625Z" fill="#78B9EB"/>
<path d="M16.6988 9.61491C16.5636 10.2763 16.497 10.9499 16.5 11.6249H13.875C13.8733 10.6737 14.174 9.74654 14.7338 8.97741C15.3476 9.30054 16.0122 9.51615 16.6988 9.61491ZM18.375 7.12491C19.11 7.12491 19.7438 8.13741 20.0513 9.61491C19.4971 9.70572 18.9365 9.75088 18.375 9.74991C17.8135 9.75088 17.2529 9.70572 16.6988 9.61491C16.995 8.18616 17.5988 7.19241 18.3038 7.12866C18.3274 7.12554 18.3512 7.12429 18.375 7.12491Z" fill="#78B9EB"/>
<path d="M23.25 11.625C23.248 10.4632 22.8314 9.34031 22.0752 8.45832C21.319 7.57633 20.2728 6.99316 19.125 6.81375V2.625C19.1244 2.1279 18.9267 1.65133 18.5752 1.29983C18.2237 0.948331 17.7471 0.750595 17.25 0.75H6.75C6.2529 0.750595 5.77633 0.948331 5.42483 1.29983C5.07333 1.65133 4.8756 2.1279 4.875 2.625V7.125H1.125C1.02554 7.125 0.930161 7.16451 0.859835 7.23483C0.789509 7.30516 0.75 7.40054 0.75 7.5V15.75C0.75 15.8495 0.789509 15.9448 0.859835 16.0152C0.930161 16.0855 1.02554 16.125 1.125 16.125H4.875V21.375C4.8756 21.8721 5.07333 22.3487 5.42483 22.7002C5.77633 23.0517 6.2529 23.2494 6.75 23.25H17.25C17.7471 23.2494 18.2237 23.0517 18.5752 22.7002C18.9267 22.3487 19.1244 21.8721 19.125 21.375V16.4363C20.2728 16.2568 21.319 15.6737 22.0752 14.7917C22.8314 13.9097 23.248 12.7868 23.25 11.625ZM19.59 9.294C18.7829 9.39037 17.9671 9.39037 17.16 9.294C17.454 8.19413 17.931 7.5 18.375 7.5C18.819 7.5 19.296 8.19413 19.59 9.294ZM20.6168 11.25C20.6034 10.8007 20.5608 10.3528 20.4893 9.909C20.9683 9.81232 21.4351 9.66239 21.8809 9.462C22.2175 10.0031 22.423 10.6154 22.4809 11.25H20.6168ZM16.8829 12H19.8671C19.8533 12.4089 19.8132 12.8165 19.7471 13.2203C18.836 13.1055 17.914 13.1055 17.0029 13.2203C16.9368 12.8165 16.8967 12.4089 16.8829 12ZM16.8829 11.25C16.8967 10.8411 16.9368 10.4335 17.0029 10.0298C17.4577 10.0909 17.9161 10.1227 18.375 10.125C18.8339 10.1227 19.2923 10.0909 19.7471 10.0298C19.8132 10.4335 19.8533 10.8411 19.8671 11.25H16.8829ZM16.4126 9.1755C16.043 9.10089 15.6811 8.99218 15.3315 8.85075C15.7837 8.35429 16.35 7.97549 16.9815 7.74713C16.7244 8.19354 16.5328 8.67458 16.4126 9.1755ZM14.8691 9.462C15.3149 9.66239 15.7817 9.81232 16.2607 9.909C16.1892 10.3528 16.1466 10.8007 16.1332 11.25H14.2691C14.327 10.6154 14.5325 10.0031 14.8691 9.462ZM16.1332 12C16.1466 12.4493 16.1892 12.8972 16.2607 13.341C15.7817 13.4377 15.3149 13.5876 14.8691 13.788C14.5325 13.2469 14.327 12.6346 14.2691 12H16.1332ZM16.4126 14.0745C16.5331 14.5755 16.7249 15.0565 16.9822 15.5029C16.3508 15.2745 15.7844 14.8957 15.3323 14.3992C15.6816 14.2579 16.0432 14.1492 16.4126 14.0745ZM18.375 15.75C17.931 15.75 17.454 15.0559 17.16 13.956C17.9671 13.8596 18.7829 13.8596 19.59 13.956C19.296 15.0559 18.819 15.75 18.375 15.75ZM20.6168 12H22.4809C22.423 12.6346 22.2175 13.2469 21.8809 13.788C21.4351 13.5876 20.9683 13.4377 20.4893 13.341C20.5608 12.8972 20.6034 12.4493 20.6168 12ZM21.4185 8.85C21.0689 8.99143 20.707 9.10014 20.3374 9.17475C20.2169 8.67379 20.0251 8.19274 19.7678 7.74637C20.3995 7.97463 20.9661 8.35344 21.4185 8.85ZM6.75 1.5H17.25C17.5484 1.5 17.8345 1.61853 18.0455 1.8295C18.2565 2.04048 18.375 2.32663 18.375 2.625V3H5.625V2.625C5.625 2.32663 5.74353 2.04048 5.9545 1.8295C6.16548 1.61853 6.45163 1.5 6.75 1.5ZM9.75 7.875V9.375H1.5V7.875H9.75ZM1.5 10.125H9.75V15.375H1.5V10.125ZM17.25 22.5H6.75C6.45163 22.5 6.16548 22.3815 5.9545 22.1705C5.74353 21.9595 5.625 21.6734 5.625 21.375V19.5H18.375V21.375C18.375 21.6734 18.2565 21.9595 18.0455 22.1705C17.8345 22.3815 17.5484 22.5 17.25 22.5ZM18.375 18.75H5.625V16.125H10.125C10.2245 16.125 10.3198 16.0855 10.3902 16.0152C10.4605 15.9448 10.5 15.8495 10.5 15.75V7.5C10.5 7.40054 10.4605 7.30516 10.3902 7.23483C10.3198 7.16451 10.2245 7.125 10.125 7.125H5.625V3.75H18.375V6.75C17.0821 6.75 15.8421 7.26361 14.9279 8.17785C14.0136 9.09209 13.5 10.3321 13.5 11.625C13.5 12.9179 14.0136 14.1579 14.9279 15.0721C15.8421 15.9864 17.0821 16.5 18.375 16.5V18.75ZM19.7678 15.5029C20.0251 15.0565 20.2169 14.5755 20.3374 14.0745C20.707 14.1491 21.0689 14.2578 21.4185 14.3992C20.9661 14.8958 20.3995 15.2746 19.7678 15.5029Z" fill="#006DF0"/>
<path d="M12 19.875C11.7775 19.875 11.56 19.941 11.375 20.0646C11.19 20.1882 11.0458 20.3639 10.9606 20.5695C10.8755 20.775 10.8532 21.0012 10.8966 21.2195C10.94 21.4377 11.0472 21.6382 11.2045 21.7955C11.3618 21.9528 11.5623 22.06 11.7805 22.1034C11.9988 22.1468 12.225 22.1245 12.4305 22.0394C12.6361 21.9542 12.8118 21.81 12.9354 21.625C13.059 21.44 13.125 21.2225 13.125 21C13.125 20.7016 13.0065 20.4155 12.7955 20.2045C12.5845 19.9935 12.2984 19.875 12 19.875ZM12 21.375C11.9258 21.375 11.8533 21.353 11.7917 21.3118C11.73 21.2706 11.6819 21.212 11.6535 21.1435C11.6252 21.075 11.6177 20.9996 11.6322 20.9268C11.6467 20.8541 11.6824 20.7873 11.7348 20.7348C11.7873 20.6824 11.8541 20.6467 11.9268 20.6322C11.9996 20.6177 12.075 20.6252 12.1435 20.6535C12.212 20.6819 12.2706 20.73 12.3118 20.7917C12.353 20.8533 12.375 20.9258 12.375 21C12.375 21.0995 12.3355 21.1948 12.2652 21.2652C12.1948 21.3355 12.0995 21.375 12 21.375Z" fill="#006DF0"/>
<path d="M13.125 1.875H10.875V2.625H13.125V1.875Z" fill="#006DF0"/>
<path d="M3.45 11.0249L2.325 12.5249C2.27632 12.5898 2.25 12.6688 2.25 12.7499C2.25 12.831 2.27632 12.91 2.325 12.9749L3.45 14.4749L4.05 14.0249L3.09375 12.7499L4.05 11.4749L3.45 11.0249ZM7.8 11.0249L7.2 11.4749L8.15625 12.7499L7.2 14.0249L7.8 14.4749L8.925 12.9749C8.97368 12.91 9 12.831 9 12.7499C9 12.6688 8.97368 12.5898 8.925 12.5249L7.8 11.0249Z" fill="#006DF0"/>
<path d="M6.03962 11.0824L4.53967 14.0823L5.21049 14.4177L6.71045 11.4178L6.03962 11.0824Z" fill="#006DF0"/>
<path d="M2.625 8.25H1.875V9H2.625V8.25Z" fill="#006DF0"/>
<path d="M3.75 8.25H3V9H3.75V8.25Z" fill="#006DF0"/>
<path d="M4.875 8.25H4.125V9H4.875V8.25Z" fill="#006DF0"/>
</g>
<defs>
<clipPath id="clip0_6_24">
<rect width="24" height="24" fill="white"/>
</clipPath>
</defs>
</svg>
