<svg width="24" height="24" viewBox="0 0 24 24" fill="none" xmlns="http://www.w3.org/2000/svg">
<path d="M14.6715 0.9375H5.25C4.85218 0.9375 4.47064 1.09554 4.18934 1.37684C3.90804 1.65814 3.75 2.03968 3.75 2.4375V21.1875C3.75 21.5853 3.90804 21.9669 4.18934 22.2482C4.47064 22.5295 4.85218 22.6875 5.25 22.6875H18.75C19.1478 22.6875 19.5294 22.5295 19.8107 22.2482C20.092 21.9669 20.25 21.5853 20.25 21.1875V6.516L14.6715 0.9375Z" fill="#EDEDED"/>
<path d="M20.1401 6.40605L14.7814 1.0473C14.7289 0.994867 14.6621 0.959164 14.5894 0.944701C14.5166 0.930238 14.4413 0.937665 14.3727 0.966041C14.3042 0.994417 14.2457 1.04247 14.2045 1.10412C14.1633 1.16578 14.1413 1.23826 14.1412 1.31242V5.54617C14.1412 5.94399 14.2993 6.32553 14.5806 6.60683C14.8619 6.88814 15.2434 7.04617 15.6412 7.04617H19.875C19.9491 7.04615 20.0216 7.02415 20.0833 6.98295C20.1449 6.94174 20.193 6.88318 20.2214 6.81467C20.2497 6.74615 20.2572 6.67077 20.2427 6.59803C20.2282 6.5253 20.1925 6.45849 20.1401 6.40605Z" fill="#C6C6C6"/>
<path d="M19.875 16.2724H11.2823L10.3823 15.2431C10.3119 15.1626 10.2251 15.098 10.1278 15.0538C10.0305 15.0095 9.92479 14.9866 9.81787 14.9866H4.125C3.92609 14.9866 3.73532 15.0656 3.59467 15.2062C3.45402 15.3469 3.375 15.5377 3.375 15.7366V21.1876C3.3756 21.6847 3.57333 22.1612 3.92483 22.5127C4.27633 22.8642 4.7529 23.062 5.25 23.0626H18.75C19.2471 23.062 19.7237 22.8642 20.0752 22.5127C20.4267 22.1612 20.6244 21.6847 20.625 21.1876V17.0224C20.625 16.8235 20.546 16.6328 20.4053 16.4921C20.2647 16.3515 20.0739 16.2724 19.875 16.2724Z" fill="#FF089B"/>
<path d="M9.75868 12.6933C9.69285 12.6933 9.62818 12.676 9.57118 12.6431L7.02943 11.175C6.94375 11.1256 6.87258 11.0546 6.82309 10.969C6.77361 10.8834 6.74755 10.7863 6.74755 10.6875C6.74755 10.5886 6.77361 10.4915 6.82309 10.4059C6.87258 10.3203 6.94375 10.2493 7.02943 10.2L9.57118 8.7322C9.65735 8.68248 9.75976 8.66902 9.85586 8.69479C9.95196 8.72057 10.0339 8.78346 10.0836 8.86964C10.1333 8.95582 10.1468 9.05823 10.121 9.15433C10.0952 9.25043 10.0324 9.33235 9.94618 9.38208L7.68455 10.6875L9.94655 11.9936C10.018 12.0349 10.0739 12.0986 10.1055 12.1748C10.1371 12.2511 10.1426 12.3357 10.1213 12.4154C10.0999 12.4951 10.0528 12.5656 9.98733 12.6158C9.92184 12.6661 9.84122 12.6933 9.75868 12.6933ZM14.2414 12.6933C14.1589 12.6933 14.0786 12.6661 14.0132 12.6158C13.9477 12.5656 13.9006 12.4951 13.8792 12.4154C13.8579 12.3357 13.8634 12.2511 13.895 12.1748C13.9266 12.0986 13.9824 12.0349 14.0539 11.9936L16.3156 10.6875L14.0536 9.38171C13.9674 9.33198 13.9045 9.25005 13.8787 9.15395C13.8529 9.05785 13.8664 8.95545 13.9161 8.86927C13.9658 8.78309 14.0478 8.72019 14.1439 8.69442C14.24 8.66864 14.3424 8.6821 14.4286 8.73183L16.9707 10.2C17.0564 10.2493 17.1275 10.3203 17.177 10.4059C17.2265 10.4915 17.2526 10.5886 17.2526 10.6875C17.2526 10.7863 17.2265 10.8834 17.177 10.969C17.1275 11.0546 17.0564 11.1256 16.9707 11.175L14.4286 12.6427C14.3717 12.6757 14.3072 12.6931 14.2414 12.6933ZM10.7742 14.0895C10.7126 14.0894 10.6519 14.0741 10.5976 14.0451C10.5433 14.016 10.497 13.974 10.4628 13.9227C10.4285 13.8715 10.4075 13.8126 10.4014 13.7513C10.3954 13.69 10.4045 13.6281 10.4281 13.5712L12.9282 7.51758C12.9662 7.42563 13.0391 7.35254 13.131 7.31439C13.2229 7.27624 13.3262 7.27615 13.4181 7.31414C13.5101 7.35213 13.5831 7.4251 13.6213 7.51698C13.6595 7.60886 13.6595 7.71213 13.6216 7.80408L11.1211 13.8573C11.0927 13.926 11.0446 13.9848 10.9829 14.0261C10.9211 14.0674 10.8485 14.0895 10.7742 14.0895ZM6.34168 4.62258C6.25335 4.62615 6.1659 4.60387 6.09005 4.55846C6.02535 4.51643 5.97172 4.45945 5.93368 4.39233C5.89396 4.32153 5.86681 4.24439 5.85343 4.16433C5.82392 3.99712 5.82392 3.82604 5.85343 3.65883C5.86676 3.57828 5.89391 3.50064 5.93368 3.42933C5.97155 3.36188 6.0252 3.30462 6.09005 3.26245C6.16717 3.22014 6.25371 3.19796 6.34168 3.19796C6.42964 3.19796 6.51618 3.22014 6.5933 3.26245C6.65828 3.30458 6.71207 3.36184 6.75005 3.42933C6.78954 3.50073 6.81655 3.57834 6.82993 3.65883C6.84475 3.74201 6.85228 3.82633 6.85243 3.91083C6.86251 4.0928 6.8184 4.27368 6.72568 4.43058C6.68407 4.49339 6.6267 4.54417 6.55932 4.57786C6.49193 4.61156 6.41689 4.62698 6.34168 4.62258ZM6.34168 3.44171C6.30437 3.44066 6.2677 3.45145 6.23691 3.47254C6.20612 3.49362 6.1828 3.52392 6.1703 3.55908C6.12741 3.67117 6.10838 3.79097 6.11443 3.91083C6.10815 4.03095 6.12718 4.15104 6.1703 4.26333C6.18383 4.29776 6.20741 4.32732 6.23798 4.34815C6.26855 4.36899 6.30468 4.38013 6.34168 4.38013C6.37867 4.38013 6.4148 4.36899 6.44537 4.34815C6.47594 4.32732 6.49952 4.29776 6.51305 4.26333C6.55598 4.15099 6.57501 4.03094 6.56893 3.91083C6.57473 3.79098 6.55571 3.67123 6.51305 3.55908C6.50055 3.52392 6.47723 3.49362 6.44644 3.47254C6.41565 3.45145 6.37898 3.44066 6.34168 3.44171ZM7.20943 4.3732H7.4183V3.48746H7.17793V3.28908C7.23239 3.28736 7.2866 3.28084 7.33993 3.26958C7.39387 3.25849 7.44362 3.23251 7.48355 3.19458H7.69768V4.37208H7.90805V4.60308H7.20943V4.3732ZM8.72968 4.62258C8.64135 4.62615 8.5539 4.60387 8.47805 4.55846C8.41335 4.51643 8.35972 4.45945 8.32168 4.39233C8.28197 4.32153 8.25481 4.24439 8.24143 4.16433C8.21192 3.99712 8.21192 3.82604 8.24143 3.65883C8.25476 3.57828 8.28191 3.50064 8.32168 3.42933C8.35974 3.36243 8.41338 3.3057 8.47805 3.26396C8.55517 3.22164 8.64171 3.19946 8.72968 3.19946C8.81764 3.19946 8.90418 3.22164 8.9813 3.26396C9.04597 3.3057 9.09961 3.36243 9.13768 3.42933C9.17716 3.50073 9.20418 3.57834 9.21755 3.65883C9.23238 3.74201 9.23991 3.82633 9.24005 3.91083C9.25013 4.0928 9.20603 4.27368 9.1133 4.43058C9.07172 4.49333 9.01442 4.54408 8.94711 4.57777C8.87979 4.61146 8.80482 4.62691 8.72968 4.62258ZM8.72968 3.44171C8.69237 3.44066 8.6557 3.45145 8.62491 3.47254C8.59412 3.49362 8.5708 3.52392 8.5583 3.55908C8.51541 3.67117 8.49638 3.79097 8.50243 3.91083C8.49615 4.03095 8.51518 4.15104 8.5583 4.26333C8.57183 4.29776 8.59541 4.32732 8.62598 4.34815C8.65655 4.36899 8.69268 4.38013 8.72968 4.38013C8.76667 4.38013 8.8028 4.36899 8.83337 4.34815C8.86394 4.32732 8.88752 4.29776 8.90105 4.26333C8.94398 4.15099 8.96301 4.03094 8.95693 3.91083C8.96273 3.79098 8.94371 3.67123 8.90105 3.55908C8.88855 3.52392 8.86523 3.49362 8.83444 3.47254C8.80365 3.45145 8.76698 3.44066 8.72968 3.44171ZM10.0538 4.62258C9.96557 4.62632 9.87819 4.60402 9.80255 4.55846C9.73765 4.51656 9.68386 4.45956 9.6458 4.39233C9.60621 4.32151 9.57919 4.24437 9.56593 4.16433C9.53593 3.99716 9.53593 3.82599 9.56593 3.65883C9.57913 3.5783 9.60616 3.50066 9.6458 3.42933C9.68369 3.36178 9.7375 3.30449 9.80255 3.26245C9.8796 3.22014 9.96608 3.19796 10.054 3.19796C10.1419 3.19796 10.2284 3.22014 10.3054 3.26245C10.3701 3.3042 10.4237 3.36093 10.4618 3.42783C10.5014 3.49916 10.5285 3.5768 10.5417 3.65733C10.5565 3.74051 10.564 3.82484 10.5642 3.90933C10.5744 4.09132 10.5303 4.27225 10.4374 4.42908C10.396 4.49211 10.3388 4.54315 10.2715 4.57711C10.2042 4.61107 10.1291 4.62675 10.0538 4.62258ZM10.0538 3.44171C10.0165 3.44066 9.97982 3.45145 9.94903 3.47254C9.91825 3.49362 9.89493 3.52392 9.88243 3.55908C9.83976 3.67123 9.82074 3.79098 9.82655 3.91083C9.82046 4.03094 9.83949 4.15099 9.88243 4.26333C9.89595 4.29776 9.91954 4.32732 9.9501 4.34815C9.98067 4.36899 10.0168 4.38013 10.0538 4.38013C10.0908 4.38013 10.1269 4.36899 10.1575 4.34815C10.1881 4.32732 10.2116 4.29776 10.2252 4.26333C10.2681 4.15099 10.2871 4.03094 10.2811 3.91083C10.2869 3.79098 10.2678 3.67123 10.2252 3.55908C10.2127 3.52392 10.1894 3.49362 10.1586 3.47254C10.1278 3.45145 10.0911 3.44066 10.0538 3.44171ZM10.9219 4.3732H11.1304V3.48746H10.8901V3.28908C10.9445 3.28739 10.9987 3.28086 11.0521 3.26958C11.106 3.25849 11.1557 3.23251 11.1957 3.19458H11.4098V4.37208H11.6202V4.60308H10.9219V4.3732ZM12.0113 4.3732H12.2202V3.48746H11.9798V3.28908C12.0343 3.28736 12.0885 3.28084 12.1418 3.26958C12.1957 3.25839 12.2454 3.23242 12.2854 3.19458H12.4996V4.37208H12.7099V4.60308H12.0113V4.3732Z" fill="#C6C6C6"/>
</svg>
